<svg xmlns="http://www.w3.org/2000/svg" viewBox="0 0 64 64" role="img" aria-label="HandBrake"><g stroke="#2f2f2f" stroke-width="2" stroke-linejoin="round"><path fill="#76ae17" d="M35 18c-2-7 0-12 4-16 1 6 0 10-1 14 4-6 8-8 13-9-2 6-6 10-11 13 6-3 11-3 15-1-4 5-9 7-15 7z"/><path fill="#f2c94c" d="M27 16c8-2 17 4 18 13 1 8-5 17-13 20-7-2-13-9-13-17 0-8 3-13 8-16z"/><path fill="none" d="M22 24l20 15M20 31l18 14M29 18l-7 22M37 21l-8 27" opacity=".45"/><path fill="#e9eef2" d="M6 20h17l-4 10-4 11v13h7v4H5v-4h7V41L6 20z"/><path fill="#c63c32" d="M7 21h14l-3 8H10z"/></g></svg>